Coordinates
version=1
nRows=12
nColumns=34
inDegrees=yes

Units are S.I. units (second, meters, Newtons, ...)
If the header above contains a line with 'inDegrees', this indicates whether rotational values are in degrees (yes) or radians (no).

endheader
time	pelvis_tilt	pelvis_list	pelvis_rotation	pelvis_tx	pelvis_ty	pelvis_tz	hip_flexion_r	hip_adduction_r	hip_rotation_r	knee_angle_r	ankle_angle_r	subtalar_angle_r	mtp_angle_r	hip_flexion_l	hip_adduction_l	hip_rotation_l	knee_angle_l	ankle_angle_l	subtalar_angle_l	mtp_angle_l	lumbar_extension	lumbar_bending	lumbar_rotation	arm_flex_r	arm_add_r	arm_rot_r	elbow_flex_r	pro_sup_r	arm_flex_l	arm_add_l	arm_rot_l	elbow_flex_l	pro_sup_l
      4.16666670	      2.20194326	     -7.10840778	   -175.62156045	      0.08424424	      1.12412020	      0.13771819	     36.97221125	     -6.88833538	     -2.49265741	     24.80700740	    -11.01664779	     -5.04520280	      0.00000000	    -18.30862862	      6.86913938	      1.63387509	     42.80360209	    -15.31752836	    -16.37988162	      0.00000000	    -16.20465734	    -11.18293813	    -23.85322077	    -33.39301068	    -15.54474310	      0.40971268	    100.24485277	     93.12813457	     27.39680767	    -24.46664343	     13.50259079	    101.18943005	     76.76356911
      4.17500000	      1.28842316	     -7.98945601	   -175.24167783	      0.08261562	      1.12425112	      0.13835424	     34.34804883	     -7.91467846	     -3.85318274	     18.87581071	    -12.99024359	     -1.00782655	      0.00000000	    -18.94895138	      7.60684864	      2.73504753	     47.65335287	    -15.18644122	    -18.76165812	      0.00000000	    -16.98035666	    -11.68043529	    -23.68537497	    -33.64209913	    -14.99264070	     -0.29017972	    101.00504302	     93.39594558	     27.75153635	    -24.22484210	     15.40550010	    102.30922694	     76.19629450
      4.18333330	      0.22936514	     -8.94300881	   -175.18427961	      0.08079061	      1.12358591	      0.13870532	     32.06229968	     -8.85741196	     -4.98797113	     14.54067228	    -14.53753561	      3.06610519	      0.00000000	    -19.64800162	      8.52674886	      3.49953423	     52.55930814	    -15.30554813	    -21.28725138	      0.00000000	    -17.90781354	    -12.23191384	    -23.07621246	    -33.70956865	    -14.25514524	     -1.19451297	    101.76875131	     93.74390976	     27.97209022	    -24.02877980	     17.78655763	    103.58311579	     75.57250440
      4.19166670	     -0.78057613	     -9.57013738	   -175.29253638	      0.07938103	      1.12166330	      0.13869039	     30.28024792	     -9.40539623	     -5.51263529	     11.71282741	    -15.89033081	      5.74745037	      0.00000000	    -20.06292338	      9.20991725	      3.94928920	     57.70629305	    -15.43662664	    -23.08608997	      0.00000000	    -18.68223910	    -12.56255900	    -20.72838654	    -34.70669352	    -12.59897266	     -3.90128093	    102.75558608	     95.83409092	     29.77213625	    -22.82570776	     22.35157161	    102.92505784	     71.89515125
      4.20000000	     -1.34122170	     -9.88092260	   -175.17284448	      0.07795878	      1.11879538	      0.13898093	     29.18960404	     -9.82442233	     -5.97478561	     10.10720169	    -17.27361977	      7.36864806	      0.00000000	    -19.79316677	      9.57894774	      4.43881280	     63.08454973	    -16.17527460	    -24.33748440	      0.00000000	    -19.23645003	    -12.43227899	    -20.28808124	    -33.92678319	    -12.49635808	     -4.01558330	    102.76071284	     96.03263835	     28.99141368	    -22.41170539	     23.85956863	    104.33177614	     71.70571179
      4.20833330	     -1.85353239	    -10.10492807	   -175.30265424	      0.07741087	      1.11430434	      0.13892332	     28.43822263	    -10.06640276	     -6.30620840	      9.53173039	    -18.14324373	      8.07539585	      0.00000000	    -19.28738011	      9.90581900	      4.62500614	     68.61416078	    -17.20734177	    -24.96555676	      0.00000000	    -19.79842095	    -12.21388976	    -19.57181017	    -32.70277857	    -12.43181024	     -4.21150732	    102.92096493	     96.16107524	     28.24198523	    -21.90000771	     25.10147473	    105.14989188	     71.61713026
      4.21666670	     -2.37062032	    -10.20074016	   -175.33461350	      0.07715735	      1.11009729	      0.13876196	     27.67250734	    -10.18962349	     -6.66273118	      9.75630610	    -17.90798199	      8.04619115	      0.00000000	    -18.56438906	     10.03714553	      4.80527209	     74.17980008	    -18.61125621	    -25.26493713	      0.00000000	    -20.47043086	    -11.76889515	    -18.90211730	    -31.41012208	    -12.33594262	     -4.44182717	    102.95231920	     96.29162737	     27.35911892	    -21.65760800	     26.33665261	    105.41846512	     71.53747843
      4.22500000	     -2.91196729	    -10.38437836	   -175.62327648	      0.07718571	      1.10492516	      0.13827430	     27.02061616	    -10.27744287	     -6.92513537	     10.75762896	    -17.42762551	      7.66157153	      0.00000000	    -17.72249754	     10.27824849	      4.75619014	     79.60552164	    -19.68170584	    -25.05858568	      0.00000000	    -21.12245672	    -11.45134066	    -17.97320686	    -30.01328717	    -12.27748551	     -4.55700275	    103.08516713	     96.35456152	     26.24521409	    -21.45476389	     27.15602050	    105.20730108	     71.51095256
      4.23333330	     -3.20182654	    -10.41336977	   -175.65132313	      0.07762860	      1.09912144	      0.13827822	     26.52631091	    -10.29138366	     -7.18041356	     12.27459033	    -16.03092417	      6.39280035	      0.00000000	    -16.33765956	     10.21676433	      4.62505961	     85.01112931	    -20.66625437	    -25.16238002	      0.00000000	    -21.59253321	    -10.87361513	    -17.20027553	    -28.52232451	    -12.33378060	     -4.62270747	    102.86581409	     96.55512980	     25.00697221	    -21.76565766	     28.25084630	    104.39703044	     71.41120250
      4.24166670	     -3.19147904	    -10.35062954	   -175.93305461	      0.07828661	      1.09251318	      0.13817923	     26.55374276	    -10.07365008	     -7.00266868	     14.58476113	    -14.35617510	      4.38396276	      0.00000000	    -14.37780643	     10.12614771	      4.11803477	     90.24492892	    -21.22270504	    -24.99077654	      0.00000000	    -21.69817474	    -10.43294036	    -16.17418739	    -26.68063871	    -12.64502781	     -4.32548255	    102.56619239	     96.92040241	     23.42291692	    -22.02615750	     28.87551601	    103.10224955	     71.25976473
      4.25000000	     -3.15058160	    -10.14441888	   -176.27108483	      0.07916324	      1.08571255	      0.13811098	     26.72846711	     -9.66353746	     -6.60905669	     17.70531405	    -12.04870252	      1.91920783	      0.00000000	    -12.15417296	      9.85661051	      3.49677924	     95.32072328	    -21.34883574	    -24.89966974	      0.00000000	    -21.94549547	     -9.79009036	    -15.09697870	    -24.72991613	    -13.14837251	     -3.89292088	    102.38346347	     97.30906743	     21.32455567	    -22.53803650	     28.83010649	    101.84209476	     71.21897333
      4.25833330	     -3.61011855	     -9.83483818	   -176.57745500	      0.08034213	      1.07980554	      0.13802869	     26.33470507	     -9.23628690	     -6.71832644	     21.39185025	     -9.08095075	      0.00479523	      0.00000000	    -10.27029570	      9.43115085	      3.01481560	    100.05362692	    -21.40256048	    -25.05174322	      0.00000000	    -23.05529936	     -8.96665953	    -13.60989574	    -22.90262775	    -13.49769176	     -4.07427775	    102.51558743	     97.36712851	     19.53552022	    -23.23531206	     29.11300539	    100.84714535	     71.25176408
